<svg width="76" height="78" viewBox="0 0 76 78" fill="none" xmlns="http://www.w3.org/2000/svg">
<path d="M8.88049 72.6204C8.88049 73.399 8.64943 74.1601 8.21649 74.8075C7.78356 75.4549 7.16819 75.9595 6.44825 76.2575C5.72831 76.5554 4.93611 76.6334 4.17182 76.4815C3.40754 76.3296 2.70551 75.9546 2.15449 75.4041C1.60348 74.8535 1.22821 74.152 1.07619 73.3884C0.924161 72.6247 1.00222 71.8332 1.30043 71.1138C1.59864 70.3945 2.10361 69.7796 2.75154 69.3471C3.39947 68.9145 4.16124 68.6836 4.9405 68.6836C5.45791 68.6836 5.97023 68.7854 6.44825 68.9833C6.92627 69.1811 7.36064 69.4711 7.7265 69.8366C8.09237 70.2022 8.38256 70.6362 8.58057 71.1138C8.77857 71.5915 8.88049 72.1034 8.88049 72.6204V72.6204Z" stroke="#A0ECBE" stroke-linecap="round" stroke-linejoin="round"/>
<path d="M30.9703 72.6204C30.9723 73.4018 30.7421 74.1663 30.3088 74.8169C29.8756 75.4674 29.2587 75.9748 28.5365 76.2748C27.8144 76.5748 27.0193 76.6538 26.2522 76.5018C25.485 76.3498 24.7803 75.9737 24.2273 75.4212C23.6743 74.8686 23.2978 74.1644 23.1457 73.3979C22.9936 72.6314 23.0727 71.837 23.3729 71.1154C23.6731 70.3938 24.181 69.7775 24.8321 69.3446C25.4832 68.9117 26.2482 68.6816 27.0303 68.6836C27.5477 68.6836 28.0601 68.7854 28.5381 68.9833C29.0162 69.1811 29.4505 69.4711 29.8163 69.8367C30.1822 70.2022 30.4724 70.6362 30.6704 71.1138C30.8684 71.5915 30.9703 72.1034 30.9703 72.6204V72.6204Z" stroke="#A0ECBE" stroke-linecap="round" stroke-linejoin="round"/>
<path d="M53.0604 72.6204C53.0624 73.4014 52.8324 74.1654 52.3996 74.8158C51.9668 75.4662 51.3505 75.9736 50.629 76.2738C49.9074 76.5741 49.1128 76.6537 48.3459 76.5025C47.579 76.3514 46.8743 75.9763 46.3209 75.4247C45.7675 74.8731 45.3903 74.1699 45.237 73.404C45.0838 72.6382 45.1614 71.8441 45.4601 71.1223C45.7588 70.4006 46.265 69.7836 46.9148 69.3494C47.5646 68.9153 48.3287 68.6836 49.1104 68.6836C50.1523 68.6965 51.148 69.1151 51.8857 69.8503C52.6234 70.5856 53.0449 71.5794 53.0604 72.6204Z" stroke="#A0ECBE" stroke-linecap="round" stroke-linejoin="round"/>
<path d="M75.1705 72.6205C75.1724 73.3994 74.9436 74.1615 74.513 74.8108C74.0823 75.46 73.469 75.9674 72.7503 76.2691C72.0317 76.5708 71.2398 76.6532 70.4743 76.5061C69.7088 76.3589 69.004 75.9887 68.4486 75.4421C67.8933 74.8955 67.5122 74.197 67.3534 73.4344C67.1945 72.6718 67.2651 71.8793 67.5561 71.1567C67.8471 70.4341 68.3456 69.8137 68.9887 69.3736C69.6319 68.9335 70.391 68.6935 71.1705 68.6836C72.2211 68.6835 73.2295 69.0963 73.978 69.833C74.7264 70.5696 75.1548 71.5709 75.1705 72.6205Z" stroke="#A0ECBE" stroke-linecap="round" stroke-linejoin="round"/>
<path d="M8.88048 50.1694C8.88048 50.948 8.64941 51.7091 8.21648 52.3565C7.78355 53.0038 7.16818 53.5084 6.44824 53.8063C5.7283 54.1043 4.9361 54.1822 4.17182 54.0303C3.40754 53.8784 2.70551 53.5035 2.15449 52.953C1.60347 52.4024 1.22821 51.701 1.07619 50.9374C0.924162 50.1738 1.00222 49.3823 1.30043 48.663C1.59864 47.9437 2.10361 47.3289 2.75153 46.8963C3.39946 46.4638 4.16124 46.2329 4.94049 46.2329C5.45827 46.2316 5.97121 46.3325 6.44982 46.5299C6.92844 46.7272 7.3633 47.0172 7.72942 47.383C8.09555 47.7488 8.3857 48.1832 8.58324 48.6614C8.78078 49.1396 8.8818 49.6521 8.88048 50.1694V50.1694Z" stroke="#A0ECBE" stroke-linecap="round" stroke-linejoin="round"/>
<path d="M30.9703 50.1695C30.9723 50.9509 30.7421 51.7153 30.3088 52.3658C29.8756 53.0163 29.2587 53.5237 28.5365 53.8237C27.8144 54.1236 27.0193 54.2026 26.2522 54.0506C25.485 53.8987 24.7803 53.5226 24.2273 52.9701C23.6743 52.4175 23.2978 51.7134 23.1457 50.9469C22.9936 50.1804 23.0727 49.3861 23.3729 48.6646C23.6731 47.943 24.181 47.3268 24.8321 46.8939C25.4832 46.461 26.2482 46.2309 27.0303 46.2329C27.5481 46.2316 28.061 46.3325 28.5397 46.5299C29.0183 46.7273 29.4531 47.0172 29.8193 47.383C30.1854 47.7488 30.4755 48.1833 30.6731 48.6615C30.8706 49.1397 30.9716 49.6521 30.9703 50.1695Z" stroke="#A0ECBE" stroke-linecap="round" stroke-linejoin="round"/>
<path d="M53.0604 50.1695C53.0624 50.9504 52.8324 51.7144 52.3996 52.3647C51.9668 53.0151 51.3505 53.5225 50.629 53.8227C49.9074 54.1229 49.1128 54.2025 48.3459 54.0514C47.579 53.9002 46.8743 53.5251 46.3209 52.9736C45.7675 52.4221 45.3903 51.7189 45.237 50.9531C45.0838 50.1872 45.1614 49.3932 45.4601 48.6715C45.7588 47.9498 46.265 47.3328 46.9148 46.8987C47.5646 46.4646 48.3287 46.2329 49.1104 46.2329C49.6286 46.2316 50.1421 46.3325 50.6213 46.5297C51.1004 46.7269 51.536 47.0167 51.9029 47.3824C52.2698 47.748 52.5609 48.1824 52.7595 48.6607C52.9581 49.139 53.0604 49.6517 53.0604 50.1695V50.1695Z" stroke="#A0ECBE" stroke-linecap="round" stroke-linejoin="round"/>
<path d="M71.2005 54.106C73.3765 54.106 75.1405 52.3435 75.1405 50.1694C75.1405 47.9954 73.3765 46.2329 71.2005 46.2329C69.0245 46.2329 67.2605 47.9954 67.2605 50.1694C67.2605 52.3435 69.0245 54.106 71.2005 54.106Z" stroke="#A0ECBE" stroke-linecap="round" stroke-linejoin="round"/>
<path d="M8.88048 27.7084C8.86865 28.4843 8.62755 29.2394 8.18749 29.8788C7.74743 30.5182 7.128 31.0135 6.40711 31.3022C5.68621 31.591 4.89598 31.6605 4.1357 31.5019C3.37541 31.3433 2.67903 30.9637 2.134 30.4109C1.58897 29.858 1.21965 29.1566 1.07242 28.3946C0.925198 27.6327 1.0066 26.8443 1.30649 26.1285C1.60638 25.4127 2.11134 24.8014 2.7579 24.3714C3.40446 23.9415 4.16382 23.712 4.9405 23.7119C5.46338 23.7105 5.98128 23.8134 6.46387 24.0145C6.94646 24.2156 7.38398 24.5108 7.75091 24.883C8.11784 25.2552 8.40674 25.6968 8.6007 26.182C8.79465 26.6671 8.8898 27.1861 8.88048 27.7084V27.7084Z" stroke="#A0ECBE" stroke-linecap="round" stroke-linejoin="round"/>
<path d="M30.9704 27.7084C30.9606 28.4872 30.7203 29.2456 30.2799 29.8882C29.8395 30.5308 29.2186 31.0289 28.4954 31.3196C27.7723 31.6104 26.9792 31.6809 26.216 31.5222C25.4528 31.3635 24.7537 30.9828 24.2067 30.4279C23.6597 29.873 23.2892 29.1689 23.1419 28.4041C22.9947 27.6392 23.0772 26.848 23.3791 26.1299C23.681 25.4119 24.1888 24.7992 24.8386 24.3689C25.4883 23.9386 26.2509 23.71 27.0305 23.7119C27.5533 23.7105 28.0712 23.8134 28.5538 24.0145C29.0364 24.2156 29.474 24.5108 29.8409 24.883C30.2079 25.2552 30.4968 25.6968 30.6907 26.182C30.8847 26.6671 30.9798 27.1861 30.9704 27.7084V27.7084Z" stroke="#A0ECBE" stroke-linecap="round" stroke-linejoin="round"/>
<path d="M53.0603 27.7084C53.0505 28.4868 52.8104 29.2448 52.3705 29.8872C51.9305 30.5296 51.3102 31.0277 50.5876 31.3187C49.865 31.6098 49.0725 31.6808 48.3096 31.523C47.5467 31.3651 46.8475 30.9853 46.3001 30.4315C45.7527 29.8776 45.3814 29.1744 45.233 28.4102C45.0846 27.646 45.1657 26.8551 45.4661 26.1369C45.7664 25.4186 46.2727 24.8052 46.9211 24.3737C47.5696 23.9422 48.3312 23.712 49.1103 23.7119C49.6337 23.7105 50.152 23.8133 50.6352 24.0143C51.1183 24.2153 51.5565 24.5104 51.9242 24.8825C52.2919 25.2545 52.5818 25.696 52.7769 26.1812C52.9719 26.6664 53.0683 27.1856 53.0603 27.7084Z" stroke="#A0ECBE" stroke-linecap="round" stroke-linejoin="round"/>
<path d="M75.1704 27.7083C75.1605 28.4845 74.9218 29.2405 74.484 29.8818C74.0462 30.5231 73.4288 31.0211 72.7091 31.3136C71.9894 31.6061 71.1994 31.6801 70.4378 31.5262C69.6763 31.3723 68.9771 30.9975 68.4277 30.4486C67.8783 29.8997 67.5031 29.2011 67.3491 28.4403C67.1951 27.6794 67.2691 26.8901 67.5618 26.171C67.8546 25.452 68.3531 24.8352 68.995 24.3978C69.6368 23.9604 70.3935 23.7218 71.1704 23.7119C71.698 23.7038 72.2218 23.8016 72.7107 23.9996C73.1997 24.1976 73.6438 24.4917 74.0169 24.8644C74.3899 25.2371 74.6843 25.6809 74.8825 26.1694C75.0806 26.6579 75.1785 27.1813 75.1704 27.7083V27.7083Z" stroke="#A0ECBE" stroke-linecap="round" stroke-linejoin="round"/>
<path d="M8.8804 5.24799C8.8804 5.76495 8.77848 6.27685 8.58048 6.75446C8.38248 7.23206 8.09228 7.66603 7.72642 8.03157C7.36056 8.39712 6.92619 8.68708 6.44817 8.88492C5.97015 9.08275 5.45783 9.18457 4.94043 9.18457C3.89548 9.18457 2.89333 8.76982 2.15444 8.03157C1.41555 7.29332 1.00046 6.29204 1.00046 5.24799C0.9925 4.72601 1.08849 4.20766 1.28293 3.72311C1.47736 3.23856 1.76636 2.79749 2.13302 2.42558C2.49967 2.05366 2.93668 1.75832 3.41865 1.55675C3.90062 1.35518 4.41794 1.2514 4.94043 1.25146C5.46292 1.2514 5.98017 1.35518 6.46215 1.55675C6.94412 1.75832 7.38119 2.05366 7.74784 2.42558C8.1145 2.79749 8.40344 3.23856 8.59787 3.72311C8.79231 4.20766 8.88836 4.72601 8.8804 5.24799V5.24799Z" stroke="#A0ECBE" stroke-linecap="round" stroke-linejoin="round"/>
<path d="M30.9702 5.24799C30.9702 5.76495 30.8683 6.27685 30.6703 6.75446C30.4723 7.23206 30.1821 7.66603 29.8163 8.03157C29.4504 8.39712 29.0161 8.68708 28.5381 8.88492C28.06 9.08275 27.5477 9.18457 27.0303 9.18457C25.9797 9.18469 24.9713 8.77187 24.2228 8.03529C23.4744 7.29871 23.046 6.29751 23.0303 5.24799C23.0303 4.18805 23.4517 3.17152 24.2018 2.42202C24.952 1.67253 25.9694 1.25146 27.0303 1.25146C27.5528 1.2514 28.0701 1.35518 28.552 1.55675C29.034 1.75832 29.471 2.05366 29.8377 2.42558C30.2043 2.79749 30.4933 3.23856 30.6877 3.72311C30.8822 4.20766 30.9782 4.72601 30.9702 5.24799V5.24799Z" stroke="#A0ECBE" stroke-linecap="round" stroke-linejoin="round"/>
<path d="M75.1704 5.24799C75.1547 6.29751 74.7263 7.29871 73.9778 8.03529C73.2294 8.77187 72.221 9.18469 71.1704 9.18457C70.653 9.18457 70.1407 9.08275 69.6627 8.88492C69.1847 8.68708 68.7503 8.39712 68.3844 8.03157C68.0186 7.66603 67.7284 7.23206 67.5304 6.75446C67.3324 6.27685 67.2304 5.76495 67.2304 5.24799C67.2225 4.72601 67.3185 4.20766 67.513 3.72311C67.7074 3.23856 67.9963 2.79749 68.363 2.42558C68.7297 2.05366 69.1667 1.75832 69.6486 1.55675C70.1306 1.35518 70.6479 1.2514 71.1704 1.25146C72.2313 1.25146 73.2487 1.67253 73.9988 2.42202C74.749 3.17152 75.1704 4.18805 75.1704 5.24799Z" stroke="#A0ECBE" stroke-linecap="round" stroke-linejoin="round"/>
<path d="M52.9404 5.24799C52.9247 6.29751 52.4963 7.29871 51.7479 8.03529C50.9994 8.77187 49.991 9.18469 48.9404 9.18457C48.423 9.18457 47.9107 9.08275 47.4327 8.88492C46.9547 8.68708 46.5203 8.39712 46.1544 8.03157C45.7886 7.66603 45.4984 7.23206 45.3004 6.75446C45.1024 6.27685 45.0005 5.76495 45.0005 5.24799C44.9925 4.72601 45.0886 4.20766 45.283 3.72311C45.4774 3.23856 45.7664 2.79749 46.133 2.42558C46.4997 2.05366 46.9367 1.75832 47.4187 1.55675C47.9006 1.35518 48.418 1.2514 48.9404 1.25146C50.0013 1.25146 51.0187 1.67253 51.7689 2.42202C52.519 3.17152 52.9404 4.18805 52.9404 5.24799Z" stroke="#A0ECBE" stroke-linecap="round" stroke-linejoin="round"/>
</svg>
